<svg width="375" height="812" viewBox="0 0 375 812" fill="none" xmlns="http://www.w3.org/2000/svg">
<rect width="375" height="812" fill="#FDFDFD"/>
<path d="M254.621 217.168L255.922 204.406H269.035V207.412H258.682L257.908 214.391C259.162 213.652 260.586 213.283 262.18 213.283C264.512 213.283 266.363 214.057 267.734 215.604C269.105 217.139 269.791 219.219 269.791 221.844C269.791 224.48 269.076 226.561 267.646 228.084C266.229 229.596 264.242 230.352 261.688 230.352C259.426 230.352 257.58 229.725 256.15 228.471C254.721 227.217 253.906 225.482 253.707 223.268H256.783C256.982 224.732 257.504 225.84 258.348 226.59C259.191 227.328 260.305 227.697 261.688 227.697C263.199 227.697 264.383 227.182 265.238 226.15C266.105 225.119 266.539 223.695 266.539 221.879C266.539 220.168 266.07 218.797 265.133 217.766C264.207 216.723 262.971 216.201 261.424 216.201C260.006 216.201 258.893 216.512 258.084 217.133L257.223 217.836L254.621 217.168Z" fill="#C4C4C4"/>
<path d="M57.8555 505.404H61.4062V508.059H57.8555V514H54.5859V508.059H42.9316V506.143L54.3926 488.406H57.8555V505.404ZM46.623 505.404H54.5859V492.854L54.1992 493.557L46.623 505.404Z" fill="#C4C4C4"/>
<path d="M296.814 62H293.545V40.3262L286.988 42.7344V39.7812L296.305 36.2832H296.814V62Z" fill="#C4C4C4"/>
<path d="M81.8555 152.621H84.2988C85.834 152.598 87.041 152.193 87.9199 151.408C88.7988 150.623 89.2383 149.562 89.2383 148.227C89.2383 145.227 87.7441 143.727 84.7559 143.727C83.3496 143.727 82.2246 144.131 81.3809 144.939C80.5488 145.736 80.1328 146.797 80.1328 148.121H76.8809C76.8809 146.094 77.6191 144.412 79.0957 143.076C80.584 141.729 82.4707 141.055 84.7559 141.055C87.1699 141.055 89.0625 141.693 90.4336 142.971C91.8047 144.248 92.4902 146.023 92.4902 148.297C92.4902 149.41 92.127 150.488 91.4004 151.531C90.6855 152.574 89.707 153.354 88.4648 153.869C89.8711 154.314 90.9551 155.053 91.7168 156.084C92.4902 157.115 92.877 158.375 92.877 159.863C92.877 162.16 92.127 163.982 90.627 165.33C89.127 166.678 87.1758 167.352 84.7734 167.352C82.3711 167.352 80.4141 166.701 78.9023 165.4C77.4023 164.1 76.6523 162.383 76.6523 160.25H79.9219C79.9219 161.598 80.3613 162.676 81.2402 163.484C82.1191 164.293 83.2969 164.697 84.7734 164.697C86.3438 164.697 87.5449 164.287 88.377 163.467C89.209 162.646 89.625 161.469 89.625 159.934C89.625 158.445 89.168 157.303 88.2539 156.506C87.3398 155.709 86.0215 155.299 84.2988 155.275H81.8555V152.621Z" fill="#C4C4C4"/>
<path d="M109.889 702.389V705.148H109.291C106.76 705.195 104.744 705.945 103.244 707.398C101.744 708.852 100.877 710.896 100.643 713.533C101.99 711.986 103.83 711.213 106.162 711.213C108.389 711.213 110.164 711.998 111.488 713.568C112.824 715.139 113.492 717.166 113.492 719.65C113.492 722.287 112.771 724.396 111.33 725.979C109.9 727.561 107.979 728.352 105.564 728.352C103.115 728.352 101.129 727.414 99.6055 725.539C98.082 723.652 97.3203 721.227 97.3203 718.262V717.014C97.3203 712.303 98.3223 708.705 100.326 706.221C102.342 703.725 105.336 702.447 109.309 702.389H109.889ZM105.617 713.92C104.504 713.92 103.479 714.254 102.541 714.922C101.604 715.59 100.953 716.428 100.59 717.436V718.631C100.59 720.74 101.064 722.439 102.014 723.729C102.963 725.018 104.146 725.662 105.564 725.662C107.029 725.662 108.178 725.123 109.01 724.045C109.854 722.967 110.275 721.555 110.275 719.809C110.275 718.051 109.848 716.633 108.992 715.555C108.148 714.465 107.023 713.92 105.617 713.92Z" fill="#C4C4C4"/>
<path d="M284.896 639H268.127V636.662L276.986 626.818C278.299 625.33 279.201 624.123 279.693 623.197C280.197 622.26 280.449 621.293 280.449 620.297C280.449 618.961 280.045 617.865 279.236 617.01C278.428 616.154 277.35 615.727 276.002 615.727C274.385 615.727 273.125 616.189 272.223 617.115C271.332 618.029 270.887 619.307 270.887 620.947H267.635C267.635 618.592 268.391 616.688 269.902 615.234C271.426 613.781 273.459 613.055 276.002 613.055C278.381 613.055 280.262 613.682 281.645 614.936C283.027 616.178 283.719 617.836 283.719 619.91C283.719 622.43 282.113 625.43 278.902 628.91L272.047 636.346H284.896V639Z" fill="#C4C4C4"/>
</svg>
