<svg width="419" height="835" viewBox="0 0 419 835" fill="none" xmlns="http://www.w3.org/2000/svg">
<rect x="34" width="375" height="812" fill="#FDFDFD"/>
<path d="M278.994 591.747C278.994 591.747 292.074 576.547 310.456 576.547C328.838 576.723 344.392 582.733 344.392 591.747C344.392 600.761 326.54 610.659 309.572 610.659C292.604 610.659 278.817 595.989 278.817 595.989C278.817 595.989 276.696 594.221 278.994 591.747Z" fill="#C2CED5"/>
<path d="M278.994 595.812C278.994 595.812 276.519 594.045 278.994 591.57C278.994 591.57 279.701 590.863 280.938 589.626C279.524 587.152 274.575 579.375 268.919 578.314C268.389 578.314 268.035 578.668 268.212 579.198C269.979 584.5 270.863 588.035 271.217 590.333C271.57 592.277 271.57 594.222 271.217 596.343C270.686 598.817 269.803 602.352 268.035 607.654C267.858 608.185 268.389 608.715 268.742 608.538C274.221 607.654 279.17 600.231 280.761 597.58C279.701 596.519 278.994 595.812 278.994 595.812Z" fill="#91AEBB"/>
<path d="M293.311 580.965C298.26 578.491 304.092 576.547 310.632 576.547C314.167 576.547 317.526 576.723 320.707 577.254C320.707 577.254 321.237 566.825 315.581 567.002C309.925 567.179 291.543 573.012 293.311 580.965Z" fill="#91AEBB"/>
<path d="M317.348 576.9C315.051 576.723 312.93 576.547 310.455 576.547C292.073 576.37 278.993 591.747 278.993 591.747C276.519 594.222 278.993 595.989 278.993 595.989C278.993 595.989 292.957 610.659 309.748 610.659C312.576 610.659 315.404 610.306 318.232 609.775C311.516 599.524 317.348 576.9 317.348 576.9Z" fill="#AAB9C4"/>
<path d="M329.368 591.217C331.418 591.217 333.08 589.555 333.08 587.505C333.08 585.455 331.418 583.793 329.368 583.793C327.318 583.793 325.656 585.455 325.656 587.505C325.656 589.555 327.318 591.217 329.368 591.217Z" fill="white"/>
<path d="M329.368 589.449C330.442 589.449 331.312 588.579 331.312 587.505C331.312 586.431 330.442 585.561 329.368 585.561C328.294 585.561 327.424 586.431 327.424 587.505C327.424 588.579 328.294 589.449 329.368 589.449Z" fill="#44565D"/>
<path d="M315.935 603.766C309.925 605.357 307.451 611.366 307.451 611.366C304.446 616.845 307.804 616.492 307.804 616.492C307.804 616.492 311.693 616.492 314.698 616.492C316.465 616.492 317.349 614.017 317.879 612.073C318.94 609.068 318.233 603.766 315.935 603.766Z" fill="#91AEBB"/>
<path d="M3.21826 424.888C5.33927 425.065 26.9029 426.479 35.387 411.809C43.871 397.139 44.2245 394.664 45.6385 388.831C46.8758 382.822 51.8248 379.464 55.1831 379.64C58.5413 379.817 63.6671 380.701 64.9044 382.645C66.1416 384.589 70.5604 393.957 62.4299 406.329C54.2993 418.702 40.6895 430.367 24.7819 432.135C8.87429 433.902 -0.670274 427.893 0.0367302 425.949C0.920486 423.828 1.80425 424.888 3.21826 424.888Z" fill="#FF3D00"/>
<path d="M53.9453 379.64C54.2988 379.64 54.8291 379.464 55.1826 379.464C58.1873 379.64 62.6061 380.347 64.3736 381.938C64.5504 380.524 64.0201 379.287 62.4294 378.58C63.3131 374.338 62.9596 372.394 61.1921 369.212C59.4246 366.031 57.6571 366.914 57.4803 367.975C57.3036 369.035 58.0106 369.919 59.7781 372.394C61.5456 374.868 59.2478 377.696 59.2478 377.696C59.0711 377.696 58.7176 377.696 58.5409 377.519C55.8896 377.343 54.4756 378.58 53.9453 379.64Z" fill="#389844"/>
<path d="M64.9044 382.645C64.0206 381.231 61.1926 380.347 58.5414 379.994C58.1879 382.115 57.6576 385.296 56.9506 389.538C55.3598 399.083 48.9968 408.45 37.508 419.055C26.0191 429.66 6.39978 427.363 3.21826 427.009C1.45074 426.832 0.920502 425.772 0.743751 424.711C0.567 424.888 0.213481 425.242 0.0367302 425.772C-0.670274 427.893 8.87429 433.725 24.7819 431.958C40.6895 430.19 54.2993 418.525 62.4299 406.153C70.5604 393.78 66.1416 384.413 64.9044 382.645Z" fill="#E24221"/>
<path d="M369.008 192.246C369.008 192.776 368.478 193.13 367.948 192.953L305.555 172.097C305.201 171.92 305.024 171.743 305.024 171.567V176.339V179.344V192.776C306.262 192.776 307.499 193.307 308.383 194.19C310.327 196.135 310.327 199.139 308.383 201.084C307.499 201.967 306.262 202.498 305.024 202.498V204.442C305.024 205.856 305.908 206.916 307.145 207.27L365.12 224.768C367.064 225.298 369.008 223.884 369.008 221.94V207.27C366.711 207.27 364.943 205.502 364.943 203.205C364.943 200.907 366.711 199.139 369.008 199.139V198.609V195.428V192.246Z" fill="#FCDF76"/>
<path d="M335.602 200.553C338.336 200.553 340.551 198.338 340.551 195.604C340.551 192.871 338.336 190.656 335.602 190.656C332.869 190.656 330.653 192.871 330.653 195.604C330.653 198.338 332.869 200.553 335.602 200.553Z" fill="#F1AD4A"/>
<path d="M342.142 208.684C343.9 208.684 345.324 207.259 345.324 205.502C345.324 203.745 343.9 202.321 342.142 202.321C340.385 202.321 338.961 203.745 338.961 205.502C338.961 207.259 340.385 208.684 342.142 208.684Z" fill="#F4C44E"/>
<path d="M363.529 220.349C364.993 220.349 366.18 219.162 366.18 217.698C366.18 216.234 364.993 215.047 363.529 215.047C362.065 215.047 360.878 216.234 360.878 217.698C360.878 219.162 362.065 220.349 363.529 220.349Z" fill="#F1AD4A"/>
<path d="M368.655 191.539L342.672 167.678C341.789 168.739 340.551 169.446 339.137 169.446C336.486 169.446 334.365 167.325 334.365 164.673C334.365 163.436 334.895 162.199 335.779 161.315L331.36 157.25C331.184 157.073 330.83 156.896 330.477 157.073L305.378 170.506C304.848 170.86 304.848 171.743 305.555 171.92L367.948 192.776C368.655 193.13 369.362 192.069 368.655 191.539Z" fill="#F4C44E"/>
<path d="M316.159 178.46C317.623 178.46 318.81 177.273 318.81 175.808C318.81 174.344 317.623 173.157 316.159 173.157C314.695 173.157 313.508 174.344 313.508 175.808C313.508 177.273 314.695 178.46 316.159 178.46Z" fill="#F1AD4A"/>
<path d="M123.648 63.4881C123.648 63.4881 135.844 59.9531 138.496 66.4928C141.147 73.0325 149.101 68.9673 148.04 64.5486C147.156 59.9531 133.9 53.4134 123.648 63.4881Z" fill="#388E3C"/>
<path d="M142.031 52.7064C143.975 49.1714 141.5 47.7574 140.44 46.6969C139.379 45.6364 138.142 43.3387 134.43 45.1062C130.895 47.0504 123.648 63.488 123.648 63.488C123.648 63.488 140.086 56.2413 142.031 52.7064Z" fill="#4CAF50"/>
<path d="M123.648 63.488C123.648 63.488 127.183 51.2924 120.644 48.6411C114.104 45.9899 118.169 38.0362 122.588 39.0967C127.183 39.9805 133.9 53.4133 123.648 63.488Z" fill="#388E3C"/>
<path d="M124.886 61.5437C122.411 59.4228 116.932 44.7526 102.792 65.0787C92.5405 79.7488 86.0007 94.0655 83.1727 100.782C82.4657 102.373 84.0564 103.787 85.6472 103.256C92.3637 100.428 106.504 93.8887 121.351 83.6373C141.677 69.4974 127.007 64.0182 124.886 61.5437Z" fill="#FF9802"/>
<path d="M111.63 68.2602L111.806 68.0835C112.337 67.5532 112.337 66.4927 111.806 65.9625L106.504 60.66C105.797 61.367 105.09 62.2508 104.383 63.3113L109.509 68.437C110.039 68.7905 110.923 68.7905 111.63 68.2602Z" fill="#EF6C00"/>
<path d="M100.671 86.4654L100.847 86.2886C101.378 85.7584 101.378 84.6979 100.847 84.1676L94.6611 77.9814C94.1308 79.0419 93.4238 79.9257 92.8936 80.9862L98.3728 86.4654C99.0798 87.1724 99.9636 87.1724 100.671 86.4654Z" fill="#EF6C00"/>
<path d="M95.1916 93.0051L95.0149 93.1818C94.4846 93.7121 94.4846 94.7726 95.0149 95.3028L97.4894 97.7773C98.5499 97.2471 99.6104 96.7168 100.671 96.1866L97.4894 93.0051C96.7824 92.2981 95.7219 92.2981 95.1916 93.0051Z" fill="#EF6C00"/>
<path d="M106.151 77.6279L105.974 77.8047C105.444 78.3349 105.444 79.3954 105.974 79.9256L114.281 88.2328C115.165 87.7026 116.225 86.9956 117.109 86.4653L108.272 77.6279C107.741 76.9209 106.681 76.9209 106.151 77.6279Z" fill="#EF6C00"/>
<path d="M108.877 682C108.877 682 106.933 683.944 105.342 688.009" stroke="#795548" stroke-width="2" stroke-miterlimit="10" stroke-linecap="round" stroke-linejoin="round"/>
<path d="M112.412 698.084C112.412 698.084 109.054 682.53 96.3278 690.13C83.6017 697.731 76.1781 717.88 76.0014 732.904C75.8246 747.927 92.4393 757.295 109.231 751.462C126.022 745.63 122.664 730.252 121.603 726.01C119.482 717.35 115.594 713.638 112.412 698.084Z" fill="#E2E993" stroke="#568F3F" stroke-width="2" stroke-miterlimit="10" stroke-linecap="round" stroke-linejoin="round"/>
<path d="M99.1558 715.936C99.1558 715.936 88.5508 718.41 88.5508 732.55C88.5508 743.155 97.0348 744.746 99.1558 744.746C101.277 744.746 114.533 741.918 107.993 726.364C104.282 715.936 101.454 716.82 99.1558 715.936Z" fill="#BF360C"/>
<path d="M107.993 726.364C104.281 715.936 101.453 716.82 99.1553 715.936V744.569C101.276 744.569 114.533 741.741 107.993 726.364Z" fill="#BF5827"/>
<path d="M412.426 790.275L395.811 777.372L389.271 769.065C389.271 769.065 391.039 765 397.932 765C404.826 765 403.588 771.893 405.886 771.893C408.184 771.893 412.779 772.247 414.547 778.61C415.961 784.973 415.607 787.801 412.426 790.275Z" fill="#2EA943"/>
<path d="M395.634 776.489L355.865 807.95C355.865 807.95 351.623 804.592 352.507 799.112C353.391 793.633 354.274 796.108 352.33 792.219C350.386 788.331 348.442 778.433 363.112 776.489C365.41 776.312 364.173 776.665 365.41 774.898C366.647 773.13 368.238 769.065 375.838 770.479C378.489 771.363 379.373 772.07 381.141 770.302C382.908 768.535 391.039 763.586 395.634 776.489Z" fill="#3BBA57"/>
<path d="M385.559 833.225C401.666 833.225 414.723 820.168 414.723 804.061C414.723 787.955 401.666 774.898 385.559 774.898C369.453 774.898 356.396 787.955 356.396 804.061C356.396 820.168 369.453 833.225 385.559 833.225Z" fill="#83CB8D"/>
<path d="M367.001 804.061C367.001 804.061 373.894 795.931 385.913 801.41C384.146 789.922 387.327 784.442 389.802 783.912" stroke="#94DA9D" stroke-width="2" stroke-miterlimit="10" stroke-linecap="round"/>
<path d="M368.591 792.749C368.591 792.749 373.893 789.391 379.019 790.982" stroke="#94DA9D" stroke-width="2" stroke-miterlimit="10" stroke-linecap="round"/>
<path d="M388.387 830.574C388.387 830.574 396.694 804.769 373.363 785.326" stroke="#94DA9D" stroke-width="2" stroke-miterlimit="10" stroke-linecap="round"/>
<path d="M376.015 812.015C376.015 812.015 389.448 809.364 389.624 815.197C391.215 799.643 390.685 797.168 400.583 790.098" stroke="#94DA9D" stroke-width="2" stroke-miterlimit="10" stroke-linecap="round"/>
<path d="M390.154 834.816C390.154 834.816 427.626 833.932 416.667 790.629C410.657 794.871 400.052 817.671 400.052 817.671L390.154 834.816Z" fill="#3ABB55"/>
<path d="M386.09 833.048C386.09 833.048 385.383 822.974 375.838 821.383C372.126 821.029 373.187 819.439 372.656 818.025C372.126 816.611 369.121 811.131 364.349 809.717C359.577 808.48 357.633 803.001 353.214 807.42C348.972 811.838 350.916 817.848 359.047 816.787C360.461 819.615 367.707 836.583 386.09 833.048Z" fill="#2EA943"/>
<path d="M394.751 834.109C394.751 834.109 388.211 836.23 385.56 833.048C384.853 828.453 388.565 822.09 400.053 817.671C411.542 813.252 415.607 807.95 415.607 791.689C418.789 788.508 421.617 783.205 414.547 780.554C407.477 777.903 409.598 786.387 408.361 787.624C407.123 788.861 402.881 791.866 405.533 801.057C405.533 803.885 400.407 802.824 400.23 809.187C400.053 815.55 402.881 830.397 394.751 834.109Z" fill="#229A30"/>
</svg>
