<svg width="375" height="812" viewBox="0 0 375 812" fill="none" xmlns="http://www.w3.org/2000/svg">
<g clip-path="url(#clip0)">
<rect width="375" height="812" fill="#FDFDFD"/>
<path d="M0.398801 340.577C0.398801 340.577 -1.01519 348.884 1.98958 354.01C4.81759 359.136 11.3574 369.917 27.6185 369.917C43.8795 369.917 50.2426 365.852 54.1311 355.247C56.4289 348.354 54.1311 343.405 58.7266 333.861C67.0339 316.186 47.5913 311.237 41.0515 311.237C34.5118 311.237 23.0229 308.939 17.1902 318.66C14.7156 322.195 7.82235 324.139 5.34784 326.967C2.87332 329.795 2.16631 330.502 0.398801 340.577Z" fill="#F9F7E8"/>
<path d="M8.46296 363.177L54.7718 315.808C50.1763 312.627 43.9899 311.566 40.8084 311.566C34.2686 311.566 22.7798 309.268 16.947 318.99C14.4725 322.524 7.57921 324.469 5.1047 327.297C2.63018 330.125 2.09991 330.832 0.332395 340.73C0.332395 340.73 -1.0816 349.037 1.92317 354.162C3.16043 356.46 5.28144 359.995 8.46296 363.177Z" fill="#FFFAEE"/>
<path d="M33.6275 346.763C39.875 346.763 44.9396 341.699 44.9396 335.451C44.9396 329.204 39.875 324.139 33.6275 324.139C27.3801 324.139 22.3154 329.204 22.3154 335.451C22.3154 341.699 27.3801 346.763 33.6275 346.763Z" fill="#FAA638"/>
<path d="M315.008 552.246C315.008 552.776 314.478 553.13 313.948 552.953L251.555 532.097C251.201 531.92 251.024 531.743 251.024 531.567V536.339V539.343V552.776C252.262 552.776 253.499 553.307 254.383 554.19C256.327 556.135 256.327 559.139 254.383 561.084C253.499 561.967 252.262 562.498 251.024 562.498V564.442C251.024 565.856 251.908 566.916 253.145 567.27L311.12 584.768C313.064 585.298 315.008 583.884 315.008 581.94V567.27C312.711 567.27 310.943 565.502 310.943 563.205C310.943 560.907 312.711 559.139 315.008 559.139V558.609V555.428V552.246Z" fill="#FCDF76"/>
<path d="M281.602 560.553C284.336 560.553 286.551 558.338 286.551 555.604C286.551 552.871 284.336 550.656 281.602 550.656C278.869 550.656 276.653 552.871 276.653 555.604C276.653 558.338 278.869 560.553 281.602 560.553Z" fill="#F1AD4A"/>
<path d="M288.142 568.684C289.9 568.684 291.324 567.259 291.324 565.502C291.324 563.745 289.9 562.321 288.142 562.321C286.385 562.321 284.961 563.745 284.961 565.502C284.961 567.259 286.385 568.684 288.142 568.684Z" fill="#F4C44E"/>
<path d="M309.529 580.349C310.993 580.349 312.18 579.162 312.18 577.698C312.18 576.234 310.993 575.047 309.529 575.047C308.065 575.047 306.878 576.234 306.878 577.698C306.878 579.162 308.065 580.349 309.529 580.349Z" fill="#F1AD4A"/>
<path d="M314.655 551.539L288.672 527.678C287.789 528.739 286.551 529.446 285.137 529.446C282.486 529.446 280.365 527.325 280.365 524.673C280.365 523.436 280.895 522.199 281.779 521.315L277.36 517.25C277.184 517.073 276.83 516.896 276.477 517.073L251.378 530.506C250.848 530.86 250.848 531.743 251.555 531.92L313.948 552.776C314.655 553.13 315.362 552.069 314.655 551.539Z" fill="#F4C44E"/>
<path d="M262.159 538.46C263.623 538.46 264.81 537.273 264.81 535.809C264.81 534.344 263.623 533.157 262.159 533.157C260.695 533.157 259.508 534.344 259.508 535.809C259.508 537.273 260.695 538.46 262.159 538.46Z" fill="#F1AD4A"/>
<path d="M61.994 694.747C61.994 694.747 75.0735 679.547 93.4557 679.547C111.838 679.723 127.392 685.733 127.392 694.747C127.392 703.761 109.54 713.659 92.5719 713.659C75.6038 713.659 61.8172 698.989 61.8172 698.989C61.8172 698.989 59.6962 697.221 61.994 694.747Z" fill="#C2CED5"/>
<path d="M61.9937 698.812C61.9937 698.812 59.5192 697.045 61.9937 694.57C61.9937 694.57 62.7007 693.863 63.9379 692.626C62.5239 690.152 57.5749 682.375 51.9189 681.314C51.3886 681.314 51.0351 681.668 51.2119 682.198C52.9794 687.5 53.8631 691.035 54.2166 693.333C54.5701 695.277 54.5701 697.221 54.2166 699.342C53.6864 701.817 52.8026 705.352 51.0351 710.654C50.8584 711.185 51.3886 711.715 51.7421 711.538C57.2214 710.654 62.1704 703.231 63.7612 700.58C62.7007 699.519 61.9937 698.812 61.9937 698.812Z" fill="#91AEBB"/>
<path d="M76.3106 683.965C81.2597 681.491 87.0925 679.547 93.6322 679.547C97.1673 679.547 100.526 679.723 103.707 680.254C103.707 680.254 104.237 669.825 98.5813 670.002C92.9252 670.179 74.5431 676.012 76.3106 683.965Z" fill="#91AEBB"/>
<path d="M100.348 679.9C98.0506 679.723 95.9296 679.547 93.455 679.547C75.0729 679.37 61.9933 694.747 61.9933 694.747C59.5188 697.222 61.9933 698.989 61.9933 698.989C61.9933 698.989 75.9567 713.659 92.748 713.659C95.5761 713.659 98.4041 713.306 101.232 712.775C94.5155 702.524 100.348 679.9 100.348 679.9Z" fill="#AAB9C4"/>
<path d="M112.368 694.217C114.418 694.217 116.08 692.555 116.08 690.505C116.08 688.455 114.418 686.793 112.368 686.793C110.318 686.793 108.656 688.455 108.656 690.505C108.656 692.555 110.318 694.217 112.368 694.217Z" fill="white"/>
<path d="M112.368 692.449C113.442 692.449 114.312 691.579 114.312 690.505C114.312 689.431 113.442 688.561 112.368 688.561C111.294 688.561 110.424 689.431 110.424 690.505C110.424 691.579 111.294 692.449 112.368 692.449Z" fill="#44565D"/>
<path d="M98.9348 706.766C92.9253 708.357 90.4508 714.366 90.4508 714.366C87.446 719.845 90.8043 719.492 90.8043 719.492C90.8043 719.492 94.6928 719.492 97.6976 719.492C99.4651 719.492 100.349 717.017 100.879 715.073C101.94 712.068 101.233 706.766 98.9348 706.766Z" fill="#91AEBB"/>
<path d="M119.21 19.3565C119.21 19.3565 112.385 22.7572 108.913 32.5901" stroke="#795548" stroke-width="2" stroke-miterlimit="10" stroke-linecap="round" stroke-linejoin="round"/>
<path d="M108.853 32.7568C93.5724 11.802 75.128 24.2203 72.3498 42.1713C69.5717 60.1223 81.0386 81.7921 94.3153 73.922L108.853 32.7568Z" fill="#EF4444"/>
<path d="M108.854 32.7568C133.905 26.046 140.46 47.2931 131.349 63.0075C122.238 78.7219 99.7052 88.3844 94.3156 73.922L108.854 32.7568Z" fill="#DB3E3D"/>
<path d="M108.854 32.7567C108.854 32.7567 114.211 11.2179 90.2295 11.1836C89.1991 15.6933 89.3063 19.1052 90.1489 22.0271C96.0317 21.293 102.688 24.2062 108.854 32.7567Z" fill="#37B550"/>
<path d="M337.909 118.875C333.844 123.117 330.132 135.136 320.587 150.159C312.634 162.355 291.247 170.309 284 172.606C284.177 174.197 286.121 174.727 286.121 174.727C288.596 175.081 303.443 178.616 320.411 169.248C349.221 151.573 349.221 120.289 349.221 116.577C349.221 113.749 350.105 110.744 349.928 108.623C346.216 107.209 341.974 114.633 337.909 118.875Z" fill="#7BB342"/>
<path d="M337.909 118.875C333.844 123.117 330.132 135.136 320.588 150.159C314.048 160.411 298.14 167.481 288.772 171.016C288.772 171.016 293.014 173.49 300.615 171.899C308.215 170.309 320.057 168.541 331.016 157.406C341.975 146.271 344.626 132.661 345.156 128.419C345.686 124.177 348.338 114.81 347.1 108.977C344.096 110.744 340.914 115.693 337.909 118.875Z" fill="#388E3C"/>
<path d="M300.615 170.309C302.275 170.309 303.62 168.963 303.62 167.304C303.62 165.644 302.275 164.299 300.615 164.299C298.956 164.299 297.61 165.644 297.61 167.304C297.61 168.963 298.956 170.309 300.615 170.309Z" fill="#C5E1A4"/>
<path d="M326.951 152.457C330.172 152.457 332.784 149.846 332.784 146.624C332.784 143.403 330.172 140.792 326.951 140.792C323.73 140.792 321.118 143.403 321.118 146.624C321.118 149.846 323.73 152.457 326.951 152.457Z" fill="#C5E1A4"/>
<path d="M318.997 161.648C321.828 161.648 324.123 159.353 324.123 156.522C324.123 153.691 321.828 151.396 318.997 151.396C316.166 151.396 313.871 153.691 313.871 156.522C313.871 159.353 316.166 161.648 318.997 161.648Z" fill="#C5E1A4"/>
<path d="M309.452 167.834C311.99 167.834 314.048 165.777 314.048 163.239C314.048 160.701 311.99 158.643 309.452 158.643C306.914 158.643 304.856 160.701 304.856 163.239C304.856 165.777 306.914 167.834 309.452 167.834Z" fill="#C5E1A4"/>
<path d="M332.783 139.731C335.614 139.731 337.909 137.436 337.909 134.605C337.909 131.774 335.614 129.48 332.783 129.48C329.952 129.48 327.657 131.774 327.657 134.605C327.657 137.436 329.952 139.731 332.783 139.731Z" fill="#C5E1A4"/>
<path d="M337.202 128.596C339.74 128.596 341.798 126.538 341.798 124C341.798 121.462 339.74 119.405 337.202 119.405C334.664 119.405 332.606 121.462 332.606 124C332.606 126.538 334.664 128.596 337.202 128.596Z" fill="#C5E1A4"/>
<path d="M341.621 118.521C343.28 118.521 344.626 117.176 344.626 115.516C344.626 113.857 343.28 112.512 341.621 112.512C339.961 112.512 338.616 113.857 338.616 115.516C338.616 117.176 339.961 118.521 341.621 118.521Z" fill="#C5E1A4"/>
<path d="M349.574 113.042C349.751 111.451 350.104 109.861 349.928 108.447C350.104 109.684 349.751 111.275 349.574 113.042Z" fill="#8BC34A"/>
<path d="M320.587 149.982C330.132 135.136 333.844 123.117 337.909 118.698C341.974 114.456 346.216 107.033 349.928 108.447C349.928 107.563 349.751 106.856 349.221 106.326C347.454 104.558 337.202 110.391 333.137 114.103C329.248 117.814 328.718 131.954 312.987 143.266C297.256 154.755 286.475 166.597 284.53 170.309C284 171.192 284 171.899 284 172.606C291.247 170.309 312.634 162.355 320.587 149.982Z" fill="#8BC34A"/>
<path d="M286.121 174.727C286.121 174.727 285.944 174.55 286.121 174.727C285.944 174.55 286.121 174.727 286.121 174.727Z" fill="#8BC34A"/>
<path d="M349.397 114.633C349.397 114.456 349.397 114.103 349.574 113.926C349.397 114.103 349.397 114.279 349.397 114.633Z" fill="#8BC34A"/>
<path d="M284 172.606C284.177 174.02 285.591 174.551 285.944 174.727C285.591 174.551 284.177 174.02 284 172.606Z" fill="#8BC34A"/>
<path d="M337.602 748.454C337.602 748.454 325.583 761.356 319.22 764.891C312.857 768.426 280.335 773.375 296.419 800.064C312.503 826.753 347.854 806.957 359.696 763.124C356.338 748.454 356.338 748.454 356.338 748.454H337.602Z" fill="#572C82"/>
<path d="M354.04 742.798C354.04 742.798 360.756 736.435 362.17 733.253C363.584 730.072 367.296 733.783 366.412 735.197C365.529 736.611 358.989 744.212 360.226 746.863C361.463 749.514 363.231 754.993 362.524 758.175C361.817 761.356 361.11 764.714 359.696 762.947C358.282 761.179 354.04 756.761 354.04 754.817C352.449 756.231 348.03 757.645 346.616 757.998C345.202 758.352 345.202 757.821 345.202 756.231C345.202 754.64 345.026 751.989 346.793 749.337C343.612 749.514 339.546 749.337 337.779 748.277C336.011 747.216 336.365 746.686 337.779 745.449C339.193 744.212 344.319 739.086 354.04 742.798Z" fill="#75BC4C"/>
<path d="M354.04 742.798C354.04 742.798 360.756 736.435 362.17 733.253C363.584 730.072 367.296 733.783 366.412 735.197C365.529 736.611 358.989 744.212 360.226 746.863C361.463 749.514 363.231 754.993 362.524 758.175C361.817 761.356 361.11 764.714 359.696 762.947C358.282 761.179 354.04 756.761 354.04 754.817C352.449 756.231 348.03 757.645 346.616 757.998C345.202 758.352 345.202 757.821 345.202 756.231C345.202 754.64 345.026 751.989 346.793 749.337C343.612 749.514 339.546 749.337 337.779 748.277C336.011 747.216 336.365 746.686 337.779 745.449C339.193 744.212 344.319 739.086 354.04 742.798Z" fill="#75BC4C"/>
<path d="M365.352 732.723L345.556 758.175C345.732 758.352 346.086 758.352 346.616 758.175C348.03 757.821 352.626 756.584 354.04 754.993C354.04 756.938 358.105 761.356 359.696 763.124C361.287 764.891 361.817 761.71 362.524 758.352C363.231 754.993 361.463 749.691 360.226 747.04C358.989 744.388 365.529 736.788 366.412 735.374C366.766 734.491 366.236 733.43 365.352 732.723Z" fill="#67A642"/>
</g>
<defs>
<clipPath id="clip0">
<rect width="375" height="812" fill="white"/>
</clipPath>
</defs>
</svg>
