<svg width="375" height="812" viewBox="0 0 375 812" fill="none" xmlns="http://www.w3.org/2000/svg">
<g clip-path="url(#clip0)">
<rect width="375" height="812" fill="#FDFDFD"/>
<path d="M-23.6012 375.577C-23.6012 375.577 -25.0152 383.884 -22.0104 389.01C-19.1824 394.136 -12.6426 404.917 3.61845 404.917C19.8795 404.917 26.2426 400.852 30.1311 390.247C32.4289 383.354 30.1311 378.405 34.7266 368.861C43.0339 351.186 23.5913 346.237 17.0515 346.237C10.5118 346.237 -0.977064 343.939 -6.80985 353.66C-9.28436 357.195 -16.1776 359.139 -18.6522 361.967C-21.1267 364.795 -21.8337 365.502 -23.6012 375.577Z" fill="#F9F7E8"/>
<path d="M-15.537 398.177L30.7718 350.808C26.1763 347.627 19.9899 346.566 16.8084 346.566C10.2686 346.566 -1.22022 344.268 -7.05301 353.99C-9.52752 357.524 -16.4208 359.469 -18.8953 362.297C-21.3698 365.125 -21.9001 365.832 -23.6676 375.73C-23.6676 375.73 -25.0816 384.037 -22.0768 389.162C-20.8396 391.46 -18.7186 394.995 -15.537 398.177Z" fill="#FFFAEE"/>
<path d="M9.62753 381.763C15.875 381.763 20.9396 376.699 20.9396 370.451C20.9396 364.204 15.875 359.139 9.62753 359.139C3.38005 359.139 -1.68457 364.204 -1.68457 370.451C-1.68457 376.699 3.38005 381.763 9.62753 381.763Z" fill="#FAA638"/>
<path d="M291.008 587.246C291.008 587.776 290.478 588.13 289.948 587.953L227.555 567.097C227.201 566.92 227.024 566.743 227.024 566.567V571.339V574.343V587.776C228.262 587.776 229.499 588.307 230.383 589.19C232.327 591.135 232.327 594.139 230.383 596.084C229.499 596.967 228.262 597.498 227.024 597.498V599.442C227.024 600.856 227.908 601.916 229.145 602.27L287.12 619.768C289.064 620.298 291.008 618.884 291.008 616.94V602.27C288.711 602.27 286.943 600.502 286.943 598.205C286.943 595.907 288.711 594.139 291.008 594.139V593.609V590.428V587.246Z" fill="#FCDF76"/>
<path d="M257.602 595.553C260.336 595.553 262.551 593.338 262.551 590.604C262.551 587.871 260.336 585.656 257.602 585.656C254.869 585.656 252.653 587.871 252.653 590.604C252.653 593.338 254.869 595.553 257.602 595.553Z" fill="#F1AD4A"/>
<path d="M264.142 603.684C265.9 603.684 267.324 602.259 267.324 600.502C267.324 598.745 265.9 597.321 264.142 597.321C262.385 597.321 260.961 598.745 260.961 600.502C260.961 602.259 262.385 603.684 264.142 603.684Z" fill="#F4C44E"/>
<path d="M285.529 615.349C286.993 615.349 288.18 614.162 288.18 612.698C288.18 611.234 286.993 610.047 285.529 610.047C284.065 610.047 282.878 611.234 282.878 612.698C282.878 614.162 284.065 615.349 285.529 615.349Z" fill="#F1AD4A"/>
<path d="M290.655 586.539L264.672 562.678C263.789 563.739 262.551 564.446 261.137 564.446C258.486 564.446 256.365 562.325 256.365 559.673C256.365 558.436 256.895 557.199 257.779 556.315L253.36 552.25C253.184 552.073 252.83 551.896 252.477 552.073L227.378 565.506C226.848 565.86 226.848 566.743 227.555 566.92L289.948 587.776C290.655 588.13 291.362 587.069 290.655 586.539Z" fill="#F4C44E"/>
<path d="M238.159 573.46C239.623 573.46 240.81 572.273 240.81 570.809C240.81 569.344 239.623 568.157 238.159 568.157C236.695 568.157 235.508 569.344 235.508 570.809C235.508 572.273 236.695 573.46 238.159 573.46Z" fill="#F1AD4A"/>
<path d="M37.994 729.747C37.994 729.747 51.0735 714.547 69.4557 714.547C87.8378 714.723 103.392 720.733 103.392 729.747C103.392 738.761 85.54 748.659 68.5719 748.659C51.6038 748.659 37.8172 733.989 37.8172 733.989C37.8172 733.989 35.6962 732.221 37.994 729.747Z" fill="#C2CED5"/>
<path d="M37.9937 733.812C37.9937 733.812 35.5192 732.045 37.9937 729.57C37.9937 729.57 38.7007 728.863 39.9379 727.626C38.5239 725.152 33.5749 717.375 27.9189 716.314C27.3886 716.314 27.0351 716.668 27.2119 717.198C28.9794 722.5 29.8631 726.035 30.2166 728.333C30.5701 730.277 30.5701 732.221 30.2166 734.342C29.6864 736.817 28.8026 740.352 27.0351 745.654C26.8584 746.185 27.3886 746.715 27.7421 746.538C33.2214 745.654 38.1704 738.231 39.7612 735.58C38.7007 734.519 37.9937 733.812 37.9937 733.812Z" fill="#91AEBB"/>
<path d="M52.3106 718.965C57.2597 716.491 63.0925 714.547 69.6322 714.547C73.1673 714.547 76.5255 714.723 79.7071 715.254C79.7071 715.254 80.2373 704.825 74.5813 705.002C68.9252 705.179 50.5431 711.012 52.3106 718.965Z" fill="#91AEBB"/>
<path d="M76.3483 714.9C74.0506 714.723 71.9296 714.547 69.455 714.547C51.0729 714.37 37.9933 729.747 37.9933 729.747C35.5188 732.222 37.9933 733.989 37.9933 733.989C37.9933 733.989 51.9567 748.659 68.748 748.659C71.5761 748.659 74.4041 748.306 77.2321 747.775C70.5155 737.524 76.3483 714.9 76.3483 714.9Z" fill="#AAB9C4"/>
<path d="M88.368 729.217C90.418 729.217 92.0798 727.555 92.0798 725.505C92.0798 723.455 90.418 721.793 88.368 721.793C86.3181 721.793 84.6562 723.455 84.6562 725.505C84.6562 727.555 86.3181 729.217 88.368 729.217Z" fill="white"/>
<path d="M88.3681 727.449C89.4418 727.449 90.3123 726.579 90.3123 725.505C90.3123 724.431 89.4418 723.561 88.3681 723.561C87.2943 723.561 86.4238 724.431 86.4238 725.505C86.4238 726.579 87.2943 727.449 88.3681 727.449Z" fill="#44565D"/>
<path d="M74.9348 741.766C68.9253 743.357 66.4508 749.366 66.4508 749.366C63.446 754.845 66.8043 754.492 66.8043 754.492C66.8043 754.492 70.6928 754.492 73.6976 754.492C75.4651 754.492 76.3488 752.017 76.8791 750.073C77.9396 747.068 77.2326 741.766 74.9348 741.766Z" fill="#91AEBB"/>
<path d="M95.2098 54.3565C95.2098 54.3565 88.3853 57.7572 84.9127 67.5901" stroke="#795548" stroke-width="2" stroke-miterlimit="10" stroke-linecap="round" stroke-linejoin="round"/>
<path d="M84.8533 67.7568C69.5724 46.802 51.128 59.2203 48.3498 77.1713C45.5717 95.1223 57.0386 116.792 70.3153 108.922L84.8533 67.7568Z" fill="#EF4444"/>
<path d="M84.8537 67.7568C109.905 61.0459 116.46 82.2931 107.349 98.0075C98.2375 113.722 75.7052 123.384 70.3156 108.922L84.8537 67.7568Z" fill="#DB3E3D"/>
<path d="M84.8536 67.7567C84.8536 67.7567 90.2109 46.2179 66.2295 46.1836C65.1991 50.6933 65.3063 54.1052 66.1489 57.0271C72.0317 56.293 78.6883 59.2062 84.8536 67.7567Z" fill="#37B550"/>
<path d="M313.909 153.875C309.844 158.117 306.132 170.136 296.587 185.159C288.634 197.355 267.247 205.309 260 207.606C260.177 209.197 262.121 209.727 262.121 209.727C264.596 210.081 279.443 213.616 296.411 204.248C325.221 186.573 325.221 155.289 325.221 151.577C325.221 148.749 326.105 145.744 325.928 143.623C322.216 142.209 317.974 149.633 313.909 153.875Z" fill="#7BB342"/>
<path d="M313.909 153.875C309.844 158.117 306.132 170.136 296.588 185.159C290.048 195.411 274.14 202.481 264.772 206.016C264.772 206.016 269.014 208.49 276.615 206.899C284.215 205.309 296.057 203.541 307.016 192.406C317.975 181.271 320.626 167.661 321.156 163.419C321.686 159.177 324.338 149.81 323.1 143.977C320.096 145.744 316.914 150.693 313.909 153.875Z" fill="#388E3C"/>
<path d="M276.615 205.309C278.275 205.309 279.62 203.963 279.62 202.304C279.62 200.644 278.275 199.299 276.615 199.299C274.956 199.299 273.61 200.644 273.61 202.304C273.61 203.963 274.956 205.309 276.615 205.309Z" fill="#C5E1A4"/>
<path d="M302.951 187.457C306.172 187.457 308.784 184.846 308.784 181.624C308.784 178.403 306.172 175.792 302.951 175.792C299.73 175.792 297.118 178.403 297.118 181.624C297.118 184.846 299.73 187.457 302.951 187.457Z" fill="#C5E1A4"/>
<path d="M294.997 196.648C297.828 196.648 300.123 194.353 300.123 191.522C300.123 188.691 297.828 186.396 294.997 186.396C292.166 186.396 289.871 188.691 289.871 191.522C289.871 194.353 292.166 196.648 294.997 196.648Z" fill="#C5E1A4"/>
<path d="M285.452 202.834C287.99 202.834 290.048 200.777 290.048 198.239C290.048 195.701 287.99 193.643 285.452 193.643C282.914 193.643 280.856 195.701 280.856 198.239C280.856 200.777 282.914 202.834 285.452 202.834Z" fill="#C5E1A4"/>
<path d="M308.783 174.731C311.614 174.731 313.909 172.436 313.909 169.605C313.909 166.774 311.614 164.48 308.783 164.48C305.952 164.48 303.657 166.774 303.657 169.605C303.657 172.436 305.952 174.731 308.783 174.731Z" fill="#C5E1A4"/>
<path d="M313.202 163.596C315.74 163.596 317.798 161.538 317.798 159C317.798 156.462 315.74 154.405 313.202 154.405C310.664 154.405 308.606 156.462 308.606 159C308.606 161.538 310.664 163.596 313.202 163.596Z" fill="#C5E1A4"/>
<path d="M317.621 153.521C319.28 153.521 320.626 152.176 320.626 150.516C320.626 148.857 319.28 147.512 317.621 147.512C315.961 147.512 314.616 148.857 314.616 150.516C314.616 152.176 315.961 153.521 317.621 153.521Z" fill="#C5E1A4"/>
<path d="M325.574 148.042C325.751 146.451 326.104 144.861 325.928 143.447C326.104 144.684 325.751 146.275 325.574 148.042Z" fill="#8BC34A"/>
<path d="M296.587 184.982C306.132 170.136 309.844 158.117 313.909 153.698C317.974 149.456 322.216 142.033 325.928 143.447C325.928 142.563 325.751 141.856 325.221 141.326C323.454 139.558 313.202 145.391 309.137 149.103C305.248 152.814 304.718 166.954 288.987 178.266C273.256 189.755 262.475 201.597 260.53 205.309C260 206.192 260 206.899 260 207.606C267.247 205.309 288.634 197.355 296.587 184.982Z" fill="#8BC34A"/>
<path d="M262.121 209.727C262.121 209.727 261.944 209.55 262.121 209.727C261.944 209.55 262.121 209.727 262.121 209.727Z" fill="#8BC34A"/>
<path d="M325.397 149.633C325.397 149.456 325.397 149.103 325.574 148.926C325.397 149.103 325.397 149.279 325.397 149.633Z" fill="#8BC34A"/>
<path d="M260 207.606C260.177 209.02 261.591 209.551 261.944 209.727C261.591 209.551 260.177 209.02 260 207.606Z" fill="#8BC34A"/>
<path d="M313.602 783.454C313.602 783.454 301.583 796.356 295.22 799.891C288.857 803.426 256.335 808.375 272.419 835.064C288.503 861.753 323.854 841.957 335.696 798.124C332.338 783.454 332.338 783.454 332.338 783.454H313.602Z" fill="#572C82"/>
<path d="M330.04 777.798C330.04 777.798 336.756 771.435 338.17 768.253C339.584 765.072 343.296 768.783 342.412 770.197C341.529 771.611 334.989 779.212 336.226 781.863C337.463 784.514 339.231 789.993 338.524 793.175C337.817 796.356 337.11 799.714 335.696 797.947C334.282 796.179 330.04 791.761 330.04 789.817C328.449 791.231 324.03 792.645 322.616 792.998C321.202 793.352 321.202 792.821 321.202 791.231C321.202 789.64 321.026 786.989 322.793 784.337C319.612 784.514 315.546 784.337 313.779 783.277C312.011 782.216 312.365 781.686 313.779 780.449C315.193 779.212 320.319 774.086 330.04 777.798Z" fill="#75BC4C"/>
<path d="M330.04 777.798C330.04 777.798 336.756 771.435 338.17 768.253C339.584 765.072 343.296 768.783 342.412 770.197C341.529 771.611 334.989 779.212 336.226 781.863C337.463 784.514 339.231 789.993 338.524 793.175C337.817 796.356 337.11 799.714 335.696 797.947C334.282 796.179 330.04 791.761 330.04 789.817C328.449 791.231 324.03 792.645 322.616 792.998C321.202 793.352 321.202 792.821 321.202 791.231C321.202 789.64 321.026 786.989 322.793 784.337C319.612 784.514 315.546 784.337 313.779 783.277C312.011 782.216 312.365 781.686 313.779 780.449C315.193 779.212 320.319 774.086 330.04 777.798Z" fill="#75BC4C"/>
<path d="M341.352 767.723L321.556 793.175C321.732 793.352 322.086 793.352 322.616 793.175C324.03 792.821 328.626 791.584 330.04 789.993C330.04 791.938 334.105 796.356 335.696 798.124C337.287 799.891 337.817 796.71 338.524 793.352C339.231 789.993 337.463 784.691 336.226 782.04C334.989 779.388 341.529 771.788 342.412 770.374C342.766 769.491 342.236 768.43 341.352 767.723Z" fill="#67A642"/>
</g>
<defs>
<clipPath id="clip0">
<rect width="375" height="812" fill="white"/>
</clipPath>
</defs>
</svg>
