<svg width="375" height="812" viewBox="0 0 375 812" fill="none" xmlns="http://www.w3.org/2000/svg">
<g clip-path="url(#clip0)">
<rect width="375" height="812" fill="#FDFDFD"/>
<path d="M244.994 591.747C244.994 591.747 258.074 576.547 276.456 576.547C294.838 576.723 310.392 582.733 310.392 591.747C310.392 600.761 292.54 610.659 275.572 610.659C258.604 610.659 244.817 595.989 244.817 595.989C244.817 595.989 242.696 594.221 244.994 591.747Z" fill="#C2CED5"/>
<path d="M244.994 595.812C244.994 595.812 242.519 594.045 244.994 591.57C244.994 591.57 245.701 590.863 246.938 589.626C245.524 587.152 240.575 579.375 234.919 578.314C234.389 578.314 234.035 578.668 234.212 579.198C235.979 584.5 236.863 588.035 237.217 590.333C237.57 592.277 237.57 594.222 237.217 596.343C236.686 598.817 235.803 602.352 234.035 607.654C233.858 608.185 234.389 608.715 234.742 608.538C240.221 607.654 245.17 600.231 246.761 597.58C245.701 596.519 244.994 595.812 244.994 595.812Z" fill="#91AEBB"/>
<path d="M259.311 580.965C264.26 578.491 270.092 576.547 276.632 576.547C280.167 576.547 283.526 576.723 286.707 577.254C286.707 577.254 287.237 566.825 281.581 567.002C275.925 567.179 257.543 573.012 259.311 580.965Z" fill="#91AEBB"/>
<path d="M283.348 576.9C281.051 576.723 278.93 576.547 276.455 576.547C258.073 576.37 244.993 591.747 244.993 591.747C242.519 594.222 244.993 595.989 244.993 595.989C244.993 595.989 258.957 610.659 275.748 610.659C278.576 610.659 281.404 610.306 284.232 609.775C277.516 599.524 283.348 576.9 283.348 576.9Z" fill="#AAB9C4"/>
<path d="M295.368 591.217C297.418 591.217 299.08 589.555 299.08 587.505C299.08 585.455 297.418 583.793 295.368 583.793C293.318 583.793 291.656 585.455 291.656 587.505C291.656 589.555 293.318 591.217 295.368 591.217Z" fill="white"/>
<path d="M295.368 589.449C296.442 589.449 297.312 588.579 297.312 587.505C297.312 586.431 296.442 585.561 295.368 585.561C294.294 585.561 293.424 586.431 293.424 587.505C293.424 588.579 294.294 589.449 295.368 589.449Z" fill="#44565D"/>
<path d="M281.935 603.766C275.925 605.357 273.451 611.366 273.451 611.366C270.446 616.845 273.804 616.492 273.804 616.492C273.804 616.492 277.693 616.492 280.698 616.492C282.465 616.492 283.349 614.017 283.879 612.073C284.94 609.068 284.233 603.766 281.935 603.766Z" fill="#91AEBB"/>
<path d="M-30.7817 424.888C-28.6607 425.065 -7.0971 426.479 1.38696 411.809C9.87101 397.139 10.2245 394.664 11.6385 388.831C12.8758 382.822 17.8248 379.464 21.1831 379.64C24.5413 379.817 29.6671 380.701 30.9044 382.645C32.1416 384.589 36.5604 393.957 28.4299 406.329C20.2993 418.702 6.68949 430.367 -9.21811 432.135C-25.1257 433.902 -34.6703 427.893 -33.9633 425.949C-33.0795 423.828 -32.1958 424.888 -30.7817 424.888Z" fill="#FF3D00"/>
<path d="M19.9453 379.64C20.2988 379.64 20.8291 379.464 21.1826 379.464C24.1873 379.64 28.6061 380.347 30.3736 381.938C30.5504 380.524 30.0201 379.287 28.4294 378.58C29.3131 374.338 28.9596 372.394 27.1921 369.212C25.4246 366.031 23.6571 366.914 23.4803 367.975C23.3036 369.035 24.0106 369.919 25.7781 372.394C27.5456 374.868 25.2478 377.696 25.2478 377.696C25.0711 377.696 24.7176 377.696 24.5409 377.519C21.8896 377.343 20.4756 378.58 19.9453 379.64Z" fill="#389844"/>
<path d="M30.9044 382.645C30.0206 381.231 27.1926 380.347 24.5414 379.994C24.1879 382.115 23.6576 385.296 22.9506 389.538C21.3598 399.083 14.9968 408.45 3.50796 419.055C-7.98086 429.66 -27.6002 427.363 -30.7817 427.009C-32.5493 426.832 -33.0795 425.772 -33.2562 424.711C-33.433 424.888 -33.7865 425.242 -33.9633 425.772C-34.6703 427.893 -25.1257 433.725 -9.21811 431.958C6.68949 430.19 20.2993 418.525 28.4299 406.153C36.5604 393.78 32.1416 384.413 30.9044 382.645Z" fill="#E24221"/>
<path d="M335.008 192.246C335.008 192.776 334.478 193.13 333.948 192.953L271.555 172.097C271.201 171.92 271.024 171.743 271.024 171.567V176.339V179.344V192.776C272.262 192.776 273.499 193.307 274.383 194.19C276.327 196.135 276.327 199.139 274.383 201.084C273.499 201.967 272.262 202.498 271.024 202.498V204.442C271.024 205.856 271.908 206.916 273.145 207.27L331.12 224.768C333.064 225.298 335.008 223.884 335.008 221.94V207.27C332.711 207.27 330.943 205.502 330.943 203.205C330.943 200.907 332.711 199.139 335.008 199.139V198.609V195.428V192.246Z" fill="#FCDF76"/>
<path d="M301.602 200.553C304.336 200.553 306.551 198.338 306.551 195.604C306.551 192.871 304.336 190.656 301.602 190.656C298.869 190.656 296.653 192.871 296.653 195.604C296.653 198.338 298.869 200.553 301.602 200.553Z" fill="#F1AD4A"/>
<path d="M308.142 208.684C309.9 208.684 311.324 207.259 311.324 205.502C311.324 203.745 309.9 202.321 308.142 202.321C306.385 202.321 304.961 203.745 304.961 205.502C304.961 207.259 306.385 208.684 308.142 208.684Z" fill="#F4C44E"/>
<path d="M329.529 220.349C330.993 220.349 332.18 219.162 332.18 217.698C332.18 216.234 330.993 215.047 329.529 215.047C328.065 215.047 326.878 216.234 326.878 217.698C326.878 219.162 328.065 220.349 329.529 220.349Z" fill="#F1AD4A"/>
<path d="M334.655 191.539L308.672 167.678C307.789 168.739 306.551 169.446 305.137 169.446C302.486 169.446 300.365 167.325 300.365 164.673C300.365 163.436 300.895 162.199 301.779 161.315L297.36 157.25C297.184 157.073 296.83 156.896 296.477 157.073L271.378 170.506C270.848 170.86 270.848 171.743 271.555 171.92L333.948 192.776C334.655 193.13 335.362 192.069 334.655 191.539Z" fill="#F4C44E"/>
<path d="M282.159 178.46C283.623 178.46 284.81 177.273 284.81 175.808C284.81 174.344 283.623 173.157 282.159 173.157C280.695 173.157 279.508 174.344 279.508 175.808C279.508 177.273 280.695 178.46 282.159 178.46Z" fill="#F1AD4A"/>
<path d="M89.6484 63.4881C89.6484 63.4881 101.844 59.9531 104.496 66.4928C107.147 73.0325 115.101 68.9673 114.04 64.5486C113.156 59.9531 99.9 53.4134 89.6484 63.4881Z" fill="#388E3C"/>
<path d="M108.031 52.7064C109.975 49.1714 107.5 47.7574 106.44 46.6969C105.379 45.6364 104.142 43.3387 100.43 45.1062C96.8952 47.0504 89.6484 63.488 89.6484 63.488C89.6484 63.488 106.086 56.2413 108.031 52.7064Z" fill="#4CAF50"/>
<path d="M89.6484 63.488C89.6484 63.488 93.1834 51.2924 86.6437 48.6411C80.1039 45.9899 84.1691 38.0362 88.5879 39.0967C93.1834 39.9805 99.8999 53.4133 89.6484 63.488Z" fill="#388E3C"/>
<path d="M90.8859 61.5437C88.4114 59.4228 82.9321 44.7526 68.792 65.0787C58.5405 79.7488 52.0007 94.0655 49.1727 100.782C48.4657 102.373 50.0564 103.787 51.6472 103.256C58.3637 100.428 72.5038 93.8887 87.3509 83.6373C107.677 69.4974 93.0069 64.0182 90.8859 61.5437Z" fill="#FF9802"/>
<path d="M77.6296 68.2602L77.8064 68.0835C78.3366 67.5532 78.3366 66.4927 77.8064 65.9625L72.5038 60.66C71.7968 61.367 71.0898 62.2508 70.3828 63.3113L75.5086 68.437C76.0388 68.7905 76.9226 68.7905 77.6296 68.2602Z" fill="#EF6C00"/>
<path d="M66.6706 86.4654L66.8474 86.2886C67.3776 85.7584 67.3776 84.6979 66.8474 84.1676L60.6611 77.9814C60.1308 79.0419 59.4238 79.9257 58.8936 80.9862L64.3728 86.4654C65.0798 87.1724 65.9636 87.1724 66.6706 86.4654Z" fill="#EF6C00"/>
<path d="M61.1916 93.0051L61.0149 93.1818C60.4846 93.7121 60.4846 94.7726 61.0149 95.3028L63.4894 97.7773C64.5499 97.2471 65.6104 96.7168 66.6709 96.1866L63.4894 93.0051C62.7824 92.2981 61.7219 92.2981 61.1916 93.0051Z" fill="#EF6C00"/>
<path d="M72.1506 77.6279L71.9739 77.8047C71.4436 78.3349 71.4436 79.3954 71.9739 79.9256L80.2811 88.2328C81.1649 87.7026 82.2254 86.9956 83.1092 86.4653L74.2716 77.6279C73.7414 76.9209 72.6809 76.9209 72.1506 77.6279Z" fill="#EF6C00"/>
<path d="M74.8768 682C74.8768 682 72.9325 683.944 71.3418 688.009" stroke="#795548" stroke-width="2" stroke-miterlimit="10" stroke-linecap="round" stroke-linejoin="round"/>
<path d="M78.4121 698.084C78.4121 698.084 75.0539 682.53 62.3278 690.13C49.6017 697.731 42.1781 717.88 42.0014 732.904C41.8246 747.927 58.4393 757.295 75.2306 751.462C92.022 745.63 88.6637 730.252 87.6032 726.01C85.4822 717.35 81.5937 713.638 78.4121 698.084Z" fill="#E2E993" stroke="#568F3F" stroke-width="2" stroke-miterlimit="10" stroke-linecap="round" stroke-linejoin="round"/>
<path d="M65.1558 715.936C65.1558 715.936 54.5508 718.41 54.5508 732.55C54.5508 743.155 63.0348 744.746 65.1558 744.746C67.2769 744.746 80.5332 741.918 73.9934 726.364C70.2816 715.936 67.4536 716.82 65.1558 715.936Z" fill="#BF360C"/>
<path d="M73.9928 726.364C70.281 715.936 67.453 716.82 65.1553 715.936V744.569C67.2763 744.569 80.5326 741.741 73.9928 726.364Z" fill="#BF5827"/>
<path d="M378.426 790.275L361.811 777.372L355.271 769.065C355.271 769.065 357.039 765 363.932 765C370.826 765 369.588 771.893 371.886 771.893C374.184 771.893 378.779 772.247 380.547 778.61C381.961 784.973 381.607 787.801 378.426 790.275Z" fill="#2EA943"/>
<path d="M361.634 776.489L321.865 807.95C321.865 807.95 317.623 804.592 318.507 799.112C319.391 793.633 320.274 796.108 318.33 792.219C316.386 788.331 314.442 778.433 329.112 776.489C331.41 776.312 330.173 776.665 331.41 774.898C332.647 773.13 334.238 769.065 341.838 770.479C344.489 771.363 345.373 772.07 347.141 770.302C348.908 768.535 357.039 763.586 361.634 776.489Z" fill="#3BBA57"/>
<path d="M351.559 833.225C367.666 833.225 380.723 820.168 380.723 804.061C380.723 787.955 367.666 774.898 351.559 774.898C335.453 774.898 322.396 787.955 322.396 804.061C322.396 820.168 335.453 833.225 351.559 833.225Z" fill="#83CB8D"/>
<path d="M333.001 804.061C333.001 804.061 339.894 795.931 351.913 801.41C350.146 789.922 353.327 784.442 355.802 783.912" stroke="#94DA9D" stroke-width="2" stroke-miterlimit="10" stroke-linecap="round"/>
<path d="M334.591 792.749C334.591 792.749 339.893 789.391 345.019 790.982" stroke="#94DA9D" stroke-width="2" stroke-miterlimit="10" stroke-linecap="round"/>
<path d="M354.387 830.574C354.387 830.574 362.694 804.769 339.363 785.326" stroke="#94DA9D" stroke-width="2" stroke-miterlimit="10" stroke-linecap="round"/>
<path d="M342.015 812.015C342.015 812.015 355.448 809.364 355.624 815.197C357.215 799.643 356.685 797.168 366.583 790.098" stroke="#94DA9D" stroke-width="2" stroke-miterlimit="10" stroke-linecap="round"/>
<path d="M356.154 834.816C356.154 834.816 393.626 833.932 382.667 790.629C376.657 794.871 366.052 817.671 366.052 817.671L356.154 834.816Z" fill="#3ABB55"/>
<path d="M352.09 833.048C352.09 833.048 351.383 822.974 341.838 821.383C338.126 821.029 339.187 819.439 338.656 818.025C338.126 816.611 335.121 811.131 330.349 809.717C325.577 808.48 323.633 803.001 319.214 807.42C314.972 811.838 316.916 817.848 325.047 816.787C326.461 819.615 333.707 836.583 352.09 833.048Z" fill="#2EA943"/>
<path d="M360.751 834.109C360.751 834.109 354.211 836.23 351.56 833.048C350.853 828.453 354.565 822.09 366.053 817.671C377.542 813.252 381.607 807.95 381.607 791.689C384.789 788.508 387.617 783.205 380.547 780.554C373.477 777.903 375.598 786.387 374.361 787.624C373.123 788.861 368.881 791.866 371.533 801.057C371.533 803.885 366.407 802.824 366.23 809.187C366.053 815.55 368.881 830.397 360.751 834.109Z" fill="#229A30"/>
</g>
<defs>
<clipPath id="clip0">
<rect width="375" height="812" fill="white"/>
</clipPath>
</defs>
</svg>
