<svg width="375" height="812" viewBox="0 0 375 812" fill="none" xmlns="http://www.w3.org/2000/svg">
<rect width="375" height="812" fill="#FDFDFD"/>
<rect x="260.085" y="302" width="46.7437" height="7.19134" rx="3.59567" transform="rotate(45 260.085 302)" fill="#F76C6C"/>
<rect x="255" y="335.053" width="46.7437" height="7.19134" rx="3.59567" transform="rotate(-45 255 335.053)" fill="#F76C6C"/>
<rect x="95.085" y="172" width="46.7437" height="7.19134" rx="3.59567" transform="rotate(45 95.085 172)" fill="#F76C6C"/>
<rect x="90" y="205.053" width="46.7437" height="7.19134" rx="3.59567" transform="rotate(-45 90 205.053)" fill="#F76C6C"/>
<rect x="245.085" y="764" width="46.7437" height="7.19134" rx="3.59567" transform="rotate(45 245.085 764)" fill="#F76C6C"/>
<rect x="240" y="797.053" width="46.7437" height="7.19134" rx="3.59567" transform="rotate(-45 240 797.053)" fill="#F76C6C"/>
<rect x="295.273" y="590.776" width="21.4525" height="7.19134" rx="3.59567" transform="rotate(36.4563 295.273 590.776)" fill="#1DE2B2"/>
<rect x="302.996" y="604.752" width="41.964" height="7.19134" rx="3.59567" transform="rotate(-53.5437 302.996 604.752)" fill="#1DE2B2"/>
<rect x="70.2734" y="679.776" width="21.4525" height="7.19134" rx="3.59567" transform="rotate(36.4563 70.2734 679.776)" fill="#1DE2B2"/>
<rect x="77.9961" y="693.752" width="41.964" height="7.19134" rx="3.59567" transform="rotate(-53.5437 77.9961 693.752)" fill="#1DE2B2"/>
<rect x="288.273" y="19.7759" width="21.4525" height="7.19134" rx="3.59567" transform="rotate(36.4563 288.273 19.7759)" fill="#1DE2B2"/>
<rect x="295.996" y="33.7522" width="41.964" height="7.19134" rx="3.59567" transform="rotate(-53.5437 295.996 33.7522)" fill="#1DE2B2"/>
</svg>
