<svg width="19" height="23" viewBox="0 0 19 23" fill="none" xmlns="http://www.w3.org/2000/svg">
<path d="M9.55151 22.5967C14.543 22.5967 18.5893 18.6222 18.5893 13.7195C18.5893 8.81674 14.543 4.84229 9.55151 4.84229C4.56005 4.84229 0.513672 8.81674 0.513672 13.7195C0.513672 18.6222 4.56005 22.5967 9.55151 22.5967Z" stroke="#231F20" stroke-miterlimit="10" stroke-linecap="round" stroke-linejoin="round"/>
<path d="M9.55144 14.2235C9.77832 14.2235 9.96225 14.0429 9.96225 13.82C9.96225 13.5972 9.77832 13.4165 9.55144 13.4165C9.32455 13.4165 9.14062 13.5972 9.14062 13.82C9.14062 14.0429 9.32455 14.2235 9.55144 14.2235Z" stroke="#231F20" stroke-miterlimit="10" stroke-linecap="round" stroke-linejoin="round"/>
<path d="M4.1084 10.2896L9.55164 13.8203" stroke="#231F20" stroke-miterlimit="10" stroke-linecap="round" stroke-linejoin="round"/>
<path d="M8.52441 4.74108V2.92529H10.4758V4.74108" stroke="#231F20" stroke-miterlimit="10" stroke-linecap="round" stroke-linejoin="round"/>
<path d="M11.7084 2.92545H7.18946C6.47054 2.92545 5.95703 2.42106 5.95703 1.71492C5.95703 1.00878 6.57325 0.504395 7.18946 0.504395H11.7084C12.4273 0.504395 12.9408 1.00878 12.9408 1.71492C13.0435 2.42106 12.4273 2.92545 11.7084 2.92545Z" stroke="#231F20" stroke-miterlimit="10" stroke-linecap="round" stroke-linejoin="round"/>
<path d="M13.3516 5.64915L14.1732 4.43862C14.2759 4.23687 14.4813 4.23687 14.6867 4.33775L16.5353 5.54827C16.7408 5.64915 16.7408 5.8509 16.6381 6.05266L15.8164 7.26318" stroke="#231F20" stroke-miterlimit="10" stroke-linecap="round" stroke-linejoin="round"/>
</svg>
