<svg width="25" height="26" viewBox="0 0 25 26" fill="none" xmlns="http://www.w3.org/2000/svg">
<path d="M12.449 25.4999H7.75514V23.1999C4.28575 23.1999 2.44902 20.9999 1.42861 18.9999C0.816366 17.5999 0.408203 16.0999 0.408203 14.5999V11.3999H12.347H24.4898V14.5999C24.4898 16.0999 24.1837 17.5999 23.4694 18.9999C22.5511 20.9999 20.7143 23.1999 17.1429 23.1999V25.4999H12.449Z" stroke="#231F20" stroke-miterlimit="10" stroke-linecap="round" stroke-linejoin="round"/>
<path d="M11.2246 11.5H18.4695L21.0205 8.4C21.9389 8.5 22.8573 8.2 23.5715 7.6C24.796 6.4 24.796 4.6 23.5715 3.4C22.3471 2.2 20.5103 2.2 19.2858 3.4C18.5715 4.1 18.2654 5 18.4695 5.9L11.2246 11.5Z" stroke="#231F20" stroke-miterlimit="10" stroke-linecap="round" stroke-linejoin="round"/>
<path d="M2.75544 0.5C2.75544 0.5 1.63299 8.2 10.9187 8.2C10.8167 0.8 5.81666 0.5 2.75544 0.5Z" stroke="#231F20" stroke-miterlimit="10" stroke-linecap="round" stroke-linejoin="round"/>
</svg>
