<svg width="24" height="24" viewBox="0 0 24 24" fill="none" xmlns="http://www.w3.org/2000/svg">
<path d="M4.2 11.1002C5.96731 11.1002 7.4 9.66751 7.4 7.9002C7.4 6.13288 5.96731 4.7002 4.2 4.7002C2.43269 4.7002 1 6.13288 1 7.9002C1 9.66751 2.43269 11.1002 4.2 11.1002Z" stroke="#231F20" stroke-miterlimit="10" stroke-linecap="round" stroke-linejoin="round"/>
<path d="M4.19941 4.6C4.69941 4.6 5.09941 4.7 5.59941 4.9V2.2C5.59941 1.5 4.99941 1 4.39941 1H4.09941C3.39941 1 2.89941 1.6 2.89941 2.2V4.9C3.29941 4.7 3.79941 4.6 4.19941 4.6Z" stroke="#231F20" stroke-miterlimit="10" stroke-linecap="round" stroke-linejoin="round"/>
<path d="M4.1998 11.0998C3.6998 11.0998 3.2998 10.9998 2.7998 10.7998V21.4998C2.7998 22.1998 3.3998 22.6998 3.9998 22.6998H4.2998C4.9998 22.6998 5.4998 22.0998 5.4998 21.4998V10.7998C5.1998 10.9998 4.6998 11.0998 4.1998 11.0998Z" stroke="#231F20" stroke-miterlimit="10" stroke-linecap="round" stroke-linejoin="round"/>
<path d="M11.9998 19.6998C13.7671 19.6998 15.1998 18.2671 15.1998 16.4998C15.1998 14.7325 13.7671 13.2998 11.9998 13.2998C10.2325 13.2998 8.7998 14.7325 8.7998 16.4998C8.7998 18.2671 10.2325 19.6998 11.9998 19.6998Z" stroke="#231F20" stroke-miterlimit="10" stroke-linecap="round" stroke-linejoin="round"/>
<path d="M11.9992 13.3C12.4992 13.3 12.8992 13.4 13.3992 13.6V2.2C13.3992 1.5 12.7992 1 12.1992 1H11.8992C11.1992 1 10.6992 1.6 10.6992 2.2V13.5C11.0992 13.4 11.4992 13.3 11.9992 13.3Z" stroke="#231F20" stroke-miterlimit="10" stroke-linecap="round" stroke-linejoin="round"/>
<path d="M11.9996 19.8004C11.4996 19.8004 11.0996 19.7004 10.5996 19.5004V21.5004C10.5996 22.2004 11.1996 22.7004 11.7996 22.7004H12.0996C12.7996 22.7004 13.2996 22.1004 13.2996 21.5004V19.4004C12.9996 19.6004 12.4996 19.8004 11.9996 19.8004Z" stroke="#231F20" stroke-miterlimit="10" stroke-linecap="round" stroke-linejoin="round"/>
<path d="M19.9002 11.1002C21.6675 11.1002 23.1002 9.66751 23.1002 7.9002C23.1002 6.13288 21.6675 4.7002 19.9002 4.7002C18.1329 4.7002 16.7002 6.13288 16.7002 7.9002C16.7002 9.66751 18.1329 11.1002 19.9002 11.1002Z" stroke="#231F20" stroke-miterlimit="10" stroke-linecap="round" stroke-linejoin="round"/>
<path d="M19.8996 4.6C20.3996 4.6 20.7996 4.7 21.2996 4.9V2.2C21.2996 1.5 20.6996 1 20.0996 1H19.7996C19.0996 1 18.5996 1.6 18.5996 2.2V4.9C18.9996 4.7 19.3996 4.6 19.8996 4.6Z" stroke="#231F20" stroke-miterlimit="10" stroke-linecap="round" stroke-linejoin="round"/>
<path d="M19.9 11.0998C19.4 11.0998 19 10.9998 18.5 10.7998V21.4998C18.5 22.1998 19.1 22.6998 19.7 22.6998H20C20.7 22.6998 21.2 22.0998 21.2 21.4998V10.7998C20.8 10.9998 20.4 11.0998 19.9 11.0998Z" stroke="#231F20" stroke-miterlimit="10" stroke-linecap="round" stroke-linejoin="round"/>
</svg>
