<svg width="21" height="25" viewBox="0 0 21 25" fill="none" xmlns="http://www.w3.org/2000/svg">
<g clip-path="url(#clip0)">
<path d="M20 20H0.5V2.4C0.5 1.3 1.4 0.5 2.4 0.5H20V20Z" stroke="#C4C4C4" stroke-miterlimit="10" stroke-linecap="round" stroke-linejoin="round"/>
<path d="M5 23.1H1.8C1.1 23.1 0.5 22.5 0.5 21.8V20H18.6V23.1H9.2" stroke="#C4C4C4" stroke-miterlimit="10" stroke-linecap="round" stroke-linejoin="round"/>
<path d="M7.1 20H5V24.4L7.1 23.1L9.2 24.4V20H7.1Z" stroke="#C4C4C4" stroke-miterlimit="10" stroke-linecap="round" stroke-linejoin="round"/>
<path d="M14.7996 6.79961C14.0996 6.59961 13.3996 6.79961 12.9996 7.19961C12.8996 5.69961 11.6996 4.59961 10.2996 4.59961C8.79961 4.59961 7.59961 5.79961 7.59961 7.19961C6.99961 6.89961 6.39961 6.69961 5.69961 6.79961C4.89961 6.99961 4.19961 7.69961 4.09961 8.49961C3.79961 9.89961 4.89961 11.0996 6.19961 11.0996C6.29961 11.0996 6.49961 11.0996 6.59961 11.0996V15.8996H13.8996V10.9996C13.9996 10.9996 14.1996 10.9996 14.2996 10.9996C15.5996 10.9996 16.6996 9.79961 16.3996 8.39961C16.1996 7.69961 15.5996 6.99961 14.7996 6.79961Z" stroke="#C4C4C4" stroke-miterlimit="10" stroke-linecap="round" stroke-linejoin="round"/>
<path d="M8.5 13.7002H11.9" stroke="#C4C4C4" stroke-miterlimit="10" stroke-linecap="round" stroke-linejoin="round"/>
</g>
<defs>
<clipPath id="clip0">
<path d="M0 0H20.5V24.9H0V0Z" fill="white"/>
</clipPath>
</defs>
</svg>
