<?xml version="1.0" encoding="utf-8"?>
<!-- Generator: Adobe Illustrator 26.4.1, SVG Export Plug-In . SVG Version: 6.00 Build 0)  -->
<svg version="1.1" id="Layer_1" xmlns="http://www.w3.org/2000/svg" xmlns:xlink="http://www.w3.org/1999/xlink" x="0px" y="0px"
	 viewBox="0 0 19.5 19" style="enable-background:new 0 0 19.5 19;" xml:space="preserve">
<style type="text/css">
	.st0{fill:none;stroke:#231F20;stroke-linecap:round;stroke-linejoin:round;stroke-miterlimit:10;}
	.st1{fill:#231F20;}
</style>
<line class="st0" x1="11.8" y1="13.7" x2="7.7" y2="17.7"/>
<line class="st0" x1="11.8" y1="17.7" x2="7.7" y2="13.7"/>
<path class="st1" d="M2.3,17.3c0-1.4,0.5-2.7,1.3-3.8c0.7-1.2,1.8-2.1,3.3-2.7l0.4-0.2l-0.3-0.3C5.3,9.1,4.6,7.8,4.6,6
	c0-1.3,0.5-2.5,1.5-3.5C7.1,1.5,8.3,1,9.7,1c1.3,0,2.6,0.5,3.6,1.5c1,1,1.6,2.5,1.4,4.1c-0.1,1.5-0.9,2.9-2.2,3.8l-0.3,0.2l0.4,0.2
	c2.7,1.3,4.2,3.5,4.4,6.5h-1c-0.2-2.1-1-3.6-2.5-4.8c-1-0.8-2.2-1.3-3.6-1.3c-0.2,0-0.3,0-0.5,0c-3.3,0.1-5.9,2.7-6.1,6.1H2.3z
	 M9.7,2c-2.2,0-4,1.8-4,4.1c0,2.2,1.8,4.1,4,4.1s4.1-1.8,4.1-4.1C13.7,3.9,11.9,2,9.7,2z"/>
</svg>
