<?xml version="1.0" encoding="utf-8"?>
<!-- Generator: Adobe Illustrator 25.0.0, SVG Export Plug-In . SVG Version: 6.00 Build 0)  -->
<svg version="1.1" id="Layer_1" xmlns="http://www.w3.org/2000/svg" xmlns:xlink="http://www.w3.org/1999/xlink" x="0px" y="0px"
	 viewBox="0 0 24 24" style="enable-background:new 0 0 24 24;" xml:space="preserve">
<style type="text/css">
	.st0{fill:#C4C4C4;}
</style>
<path class="st0" d="M5,4H2V3h3V4z M15.9,4l0.8,1.2c0.7,1.1,2,1.8,3.3,1.8H22v13H2V7h3.9c1.3,0,2.6-0.7,3.3-1.8L10.1,4H15.9z M17,2
	H9L7.6,4.1C7.2,4.7,6.6,5,5.9,5H0v17h24V5h-3.9c-0.7,0-1.3-0.3-1.7-0.9C18.4,4.1,17,2,17,2z M6,10c0-0.6-0.4-1-1-1s-1,0.4-1,1
	s0.4,1,1,1S6,10.6,6,10z M13,10c1.7,0,3,1.3,3,3s-1.3,3-3,3s-3-1.3-3-3S11.3,10,13,10z M13,8c-2.8,0-5,2.2-5,5s2.2,5,5,5s5-2.2,5-5
	S15.8,8,13,8z"/>
</svg>
